G04 #@! TF.GenerationSoftware,KiCad,Pcbnew,5.1.2-1.fc30*
G04 #@! TF.CreationDate,2019-07-15T00:46:44+02:00*
G04 #@! TF.ProjectId,BadUSB,42616455-5342-42e6-9b69-6361645f7063,rev?*
G04 #@! TF.SameCoordinates,Original*
G04 #@! TF.FileFunction,Legend,Bot*
G04 #@! TF.FilePolarity,Positive*
%FSLAX46Y46*%
G04 Gerber Fmt 4.6, Leading zero omitted, Abs format (unit mm)*
G04 Created by KiCad (PCBNEW 5.1.2-1.fc30) date 2019-07-15 00:46:44*
%MOMM*%
%LPD*%
G04 APERTURE LIST*
%ADD10C,0.150000*%
G04 APERTURE END LIST*
D10*
X87987619Y-49228571D02*
X88130476Y-49276190D01*
X88178095Y-49323809D01*
X88225714Y-49419047D01*
X88225714Y-49561904D01*
X88178095Y-49657142D01*
X88130476Y-49704761D01*
X88035238Y-49752380D01*
X87654285Y-49752380D01*
X87654285Y-48752380D01*
X87987619Y-48752380D01*
X88082857Y-48800000D01*
X88130476Y-48847619D01*
X88178095Y-48942857D01*
X88178095Y-49038095D01*
X88130476Y-49133333D01*
X88082857Y-49180952D01*
X87987619Y-49228571D01*
X87654285Y-49228571D01*
X89082857Y-49752380D02*
X89082857Y-49228571D01*
X89035238Y-49133333D01*
X88940000Y-49085714D01*
X88749523Y-49085714D01*
X88654285Y-49133333D01*
X89082857Y-49704761D02*
X88987619Y-49752380D01*
X88749523Y-49752380D01*
X88654285Y-49704761D01*
X88606666Y-49609523D01*
X88606666Y-49514285D01*
X88654285Y-49419047D01*
X88749523Y-49371428D01*
X88987619Y-49371428D01*
X89082857Y-49323809D01*
X89987619Y-49752380D02*
X89987619Y-48752380D01*
X89987619Y-49704761D02*
X89892380Y-49752380D01*
X89701904Y-49752380D01*
X89606666Y-49704761D01*
X89559047Y-49657142D01*
X89511428Y-49561904D01*
X89511428Y-49276190D01*
X89559047Y-49180952D01*
X89606666Y-49133333D01*
X89701904Y-49085714D01*
X89892380Y-49085714D01*
X89987619Y-49133333D01*
X90463809Y-48752380D02*
X90463809Y-49561904D01*
X90511428Y-49657142D01*
X90559047Y-49704761D01*
X90654285Y-49752380D01*
X90844761Y-49752380D01*
X90940000Y-49704761D01*
X90987619Y-49657142D01*
X91035238Y-49561904D01*
X91035238Y-48752380D01*
X91463809Y-49704761D02*
X91606666Y-49752380D01*
X91844761Y-49752380D01*
X91940000Y-49704761D01*
X91987619Y-49657142D01*
X92035238Y-49561904D01*
X92035238Y-49466666D01*
X91987619Y-49371428D01*
X91940000Y-49323809D01*
X91844761Y-49276190D01*
X91654285Y-49228571D01*
X91559047Y-49180952D01*
X91511428Y-49133333D01*
X91463809Y-49038095D01*
X91463809Y-48942857D01*
X91511428Y-48847619D01*
X91559047Y-48800000D01*
X91654285Y-48752380D01*
X91892380Y-48752380D01*
X92035238Y-48800000D01*
X92797142Y-49228571D02*
X92940000Y-49276190D01*
X92987619Y-49323809D01*
X93035238Y-49419047D01*
X93035238Y-49561904D01*
X92987619Y-49657142D01*
X92940000Y-49704761D01*
X92844761Y-49752380D01*
X92463809Y-49752380D01*
X92463809Y-48752380D01*
X92797142Y-48752380D01*
X92892380Y-48800000D01*
X92940000Y-48847619D01*
X92987619Y-48942857D01*
X92987619Y-49038095D01*
X92940000Y-49133333D01*
X92892380Y-49180952D01*
X92797142Y-49228571D01*
X92463809Y-49228571D01*
X93225714Y-49847619D02*
X93987619Y-49847619D01*
X94797142Y-49657142D02*
X94749523Y-49704761D01*
X94606666Y-49752380D01*
X94511428Y-49752380D01*
X94368571Y-49704761D01*
X94273333Y-49609523D01*
X94225714Y-49514285D01*
X94178095Y-49323809D01*
X94178095Y-49180952D01*
X94225714Y-48990476D01*
X94273333Y-48895238D01*
X94368571Y-48800000D01*
X94511428Y-48752380D01*
X94606666Y-48752380D01*
X94749523Y-48800000D01*
X94797142Y-48847619D01*
X94987619Y-49847619D02*
X95749523Y-49847619D01*
X95892380Y-49085714D02*
X96130476Y-49752380D01*
X96368571Y-49085714D01*
X96701904Y-48847619D02*
X96749523Y-48800000D01*
X96844761Y-48752380D01*
X97082857Y-48752380D01*
X97178095Y-48800000D01*
X97225714Y-48847619D01*
X97273333Y-48942857D01*
X97273333Y-49038095D01*
X97225714Y-49180952D01*
X96654285Y-49752380D01*
X97273333Y-49752380D01*
M02*
