G04 #@! TF.GenerationSoftware,KiCad,Pcbnew,5.1.2-1.fc30*
G04 #@! TF.CreationDate,2019-07-15T00:46:44+02:00*
G04 #@! TF.ProjectId,BadUSB,42616455-5342-42e6-9b69-6361645f7063,rev?*
G04 #@! TF.SameCoordinates,Original*
G04 #@! TF.FileFunction,Copper,L2,Bot*
G04 #@! TF.FilePolarity,Positive*
%FSLAX46Y46*%
G04 Gerber Fmt 4.6, Leading zero omitted, Abs format (unit mm)*
G04 Created by KiCad (PCBNEW 5.1.2-1.fc30) date 2019-07-15 00:46:44*
%MOMM*%
%LPD*%
G04 APERTURE LIST*
%ADD10O,1.400000X1.400000*%
%ADD11C,1.400000*%
%ADD12O,2.200000X2.200000*%
%ADD13R,2.200000X2.200000*%
%ADD14O,1.600000X1.600000*%
%ADD15R,1.600000X1.600000*%
%ADD16C,0.254000*%
G04 APERTURE END LIST*
D10*
X77480000Y-43220000D03*
D11*
X82560000Y-43220000D03*
D10*
X84250000Y-52950000D03*
D11*
X84250000Y-47870000D03*
D10*
X86340000Y-52800000D03*
D11*
X86340000Y-47720000D03*
D12*
X78190000Y-56000000D03*
D13*
X78190000Y-45840000D03*
D14*
X85630000Y-40170000D03*
X78010000Y-32550000D03*
X83090000Y-40170000D03*
X80550000Y-32550000D03*
X80550000Y-40170000D03*
X83090000Y-32550000D03*
X78010000Y-40170000D03*
D15*
X85630000Y-32550000D03*
D12*
X81460000Y-56040000D03*
D13*
X81460000Y-45880000D03*
D16*
G36*
X88283000Y-58463000D02*
G01*
X76357000Y-58463000D01*
X76357000Y-56396123D01*
X76500821Y-56396123D01*
X76610558Y-56718054D01*
X76780992Y-57012391D01*
X77005573Y-57267822D01*
X77275671Y-57474531D01*
X77580906Y-57624575D01*
X77793878Y-57689175D01*
X78063000Y-57571125D01*
X78063000Y-56127000D01*
X78317000Y-56127000D01*
X78317000Y-57571125D01*
X78586122Y-57689175D01*
X78799094Y-57624575D01*
X79104329Y-57474531D01*
X79374427Y-57267822D01*
X79599008Y-57012391D01*
X79769442Y-56718054D01*
X79818183Y-56575066D01*
X79880558Y-56758054D01*
X80050992Y-57052391D01*
X80275573Y-57307822D01*
X80545671Y-57514531D01*
X80850906Y-57664575D01*
X81063878Y-57729175D01*
X81333000Y-57611125D01*
X81333000Y-56167000D01*
X81587000Y-56167000D01*
X81587000Y-57611125D01*
X81856122Y-57729175D01*
X82069094Y-57664575D01*
X82374329Y-57514531D01*
X82644427Y-57307822D01*
X82869008Y-57052391D01*
X83039442Y-56758054D01*
X83149179Y-56436123D01*
X83031600Y-56167000D01*
X81587000Y-56167000D01*
X81333000Y-56167000D01*
X79888400Y-56167000D01*
X79833738Y-56292114D01*
X79761600Y-56127000D01*
X78317000Y-56127000D01*
X78063000Y-56127000D01*
X76618400Y-56127000D01*
X76500821Y-56396123D01*
X76357000Y-56396123D01*
X76357000Y-55603877D01*
X76500821Y-55603877D01*
X76618400Y-55873000D01*
X78063000Y-55873000D01*
X78063000Y-54428875D01*
X78317000Y-54428875D01*
X78317000Y-55873000D01*
X79761600Y-55873000D01*
X79816262Y-55747886D01*
X79888400Y-55913000D01*
X81333000Y-55913000D01*
X81333000Y-54468875D01*
X81587000Y-54468875D01*
X81587000Y-55913000D01*
X83031600Y-55913000D01*
X83149179Y-55643877D01*
X83039442Y-55321946D01*
X82869008Y-55027609D01*
X82644427Y-54772178D01*
X82374329Y-54565469D01*
X82069094Y-54415425D01*
X81856122Y-54350825D01*
X81587000Y-54468875D01*
X81333000Y-54468875D01*
X81063878Y-54350825D01*
X80850906Y-54415425D01*
X80545671Y-54565469D01*
X80275573Y-54772178D01*
X80050992Y-55027609D01*
X79880558Y-55321946D01*
X79831817Y-55464934D01*
X79769442Y-55281946D01*
X79599008Y-54987609D01*
X79374427Y-54732178D01*
X79104329Y-54525469D01*
X78799094Y-54375425D01*
X78586122Y-54310825D01*
X78317000Y-54428875D01*
X78063000Y-54428875D01*
X77793878Y-54310825D01*
X77580906Y-54375425D01*
X77275671Y-54525469D01*
X77005573Y-54732178D01*
X76780992Y-54987609D01*
X76610558Y-55281946D01*
X76500821Y-55603877D01*
X76357000Y-55603877D01*
X76357000Y-52950000D01*
X82908541Y-52950000D01*
X82934317Y-53211706D01*
X83010653Y-53463354D01*
X83134618Y-53695275D01*
X83301445Y-53898555D01*
X83504725Y-54065382D01*
X83736646Y-54189347D01*
X83988294Y-54265683D01*
X84184421Y-54285000D01*
X84315579Y-54285000D01*
X84511706Y-54265683D01*
X84763354Y-54189347D01*
X84995275Y-54065382D01*
X85198555Y-53898555D01*
X85356551Y-53706036D01*
X85391445Y-53748555D01*
X85594725Y-53915382D01*
X85826646Y-54039347D01*
X86078294Y-54115683D01*
X86274421Y-54135000D01*
X86405579Y-54135000D01*
X86601706Y-54115683D01*
X86853354Y-54039347D01*
X87085275Y-53915382D01*
X87288555Y-53748555D01*
X87455382Y-53545275D01*
X87579347Y-53313354D01*
X87655683Y-53061706D01*
X87681459Y-52800000D01*
X87655683Y-52538294D01*
X87579347Y-52286646D01*
X87455382Y-52054725D01*
X87288555Y-51851445D01*
X87085275Y-51684618D01*
X86853354Y-51560653D01*
X86601706Y-51484317D01*
X86405579Y-51465000D01*
X86274421Y-51465000D01*
X86078294Y-51484317D01*
X85826646Y-51560653D01*
X85594725Y-51684618D01*
X85391445Y-51851445D01*
X85233449Y-52043964D01*
X85198555Y-52001445D01*
X84995275Y-51834618D01*
X84763354Y-51710653D01*
X84511706Y-51634317D01*
X84315579Y-51615000D01*
X84184421Y-51615000D01*
X83988294Y-51634317D01*
X83736646Y-51710653D01*
X83504725Y-51834618D01*
X83301445Y-52001445D01*
X83134618Y-52204725D01*
X83010653Y-52436646D01*
X82934317Y-52688294D01*
X82908541Y-52950000D01*
X76357000Y-52950000D01*
X76357000Y-43951023D01*
X76364618Y-43965275D01*
X76531445Y-44168555D01*
X76658399Y-44272743D01*
X76638815Y-44288815D01*
X76559463Y-44385506D01*
X76500498Y-44495820D01*
X76464188Y-44615518D01*
X76451928Y-44740000D01*
X76451928Y-46940000D01*
X76464188Y-47064482D01*
X76500498Y-47184180D01*
X76559463Y-47294494D01*
X76638815Y-47391185D01*
X76735506Y-47470537D01*
X76845820Y-47529502D01*
X76965518Y-47565812D01*
X77090000Y-47578072D01*
X79290000Y-47578072D01*
X79414482Y-47565812D01*
X79534180Y-47529502D01*
X79644494Y-47470537D01*
X79741185Y-47391185D01*
X79812995Y-47303684D01*
X79829463Y-47334494D01*
X79908815Y-47431185D01*
X80005506Y-47510537D01*
X80115820Y-47569502D01*
X80235518Y-47605812D01*
X80360000Y-47618072D01*
X82560000Y-47618072D01*
X82684482Y-47605812D01*
X82804180Y-47569502D01*
X82914494Y-47510537D01*
X82974197Y-47461540D01*
X82966304Y-47480595D01*
X82915000Y-47738514D01*
X82915000Y-48001486D01*
X82966304Y-48259405D01*
X83066939Y-48502359D01*
X83213038Y-48721013D01*
X83398987Y-48906962D01*
X83617641Y-49053061D01*
X83860595Y-49153696D01*
X84118514Y-49205000D01*
X84381486Y-49205000D01*
X84639405Y-49153696D01*
X84882359Y-49053061D01*
X85101013Y-48906962D01*
X85286962Y-48721013D01*
X85353482Y-48621457D01*
X85488987Y-48756962D01*
X85707641Y-48903061D01*
X85950595Y-49003696D01*
X86208514Y-49055000D01*
X86471486Y-49055000D01*
X86729405Y-49003696D01*
X86972359Y-48903061D01*
X87191013Y-48756962D01*
X87376962Y-48571013D01*
X87523061Y-48352359D01*
X87623696Y-48109405D01*
X87675000Y-47851486D01*
X87675000Y-47588514D01*
X87623696Y-47330595D01*
X87523061Y-47087641D01*
X87376962Y-46868987D01*
X87191013Y-46683038D01*
X86972359Y-46536939D01*
X86729405Y-46436304D01*
X86471486Y-46385000D01*
X86208514Y-46385000D01*
X85950595Y-46436304D01*
X85707641Y-46536939D01*
X85488987Y-46683038D01*
X85303038Y-46868987D01*
X85236518Y-46968543D01*
X85101013Y-46833038D01*
X84882359Y-46686939D01*
X84639405Y-46586304D01*
X84381486Y-46535000D01*
X84118514Y-46535000D01*
X83860595Y-46586304D01*
X83617641Y-46686939D01*
X83398987Y-46833038D01*
X83213038Y-47018987D01*
X83190981Y-47051998D01*
X83198072Y-46980000D01*
X83198072Y-44780000D01*
X83185812Y-44655518D01*
X83149502Y-44535820D01*
X83099172Y-44441660D01*
X83192359Y-44403061D01*
X83411013Y-44256962D01*
X83596962Y-44071013D01*
X83743061Y-43852359D01*
X83843696Y-43609405D01*
X83895000Y-43351486D01*
X83895000Y-43088514D01*
X83843696Y-42830595D01*
X83743061Y-42587641D01*
X83596962Y-42368987D01*
X83411013Y-42183038D01*
X83192359Y-42036939D01*
X82949405Y-41936304D01*
X82691486Y-41885000D01*
X82428514Y-41885000D01*
X82170595Y-41936304D01*
X81927641Y-42036939D01*
X81708987Y-42183038D01*
X81523038Y-42368987D01*
X81376939Y-42587641D01*
X81276304Y-42830595D01*
X81225000Y-43088514D01*
X81225000Y-43351486D01*
X81276304Y-43609405D01*
X81376939Y-43852359D01*
X81523038Y-44071013D01*
X81593953Y-44141928D01*
X80360000Y-44141928D01*
X80235518Y-44154188D01*
X80115820Y-44190498D01*
X80005506Y-44249463D01*
X79908815Y-44328815D01*
X79837005Y-44416316D01*
X79820537Y-44385506D01*
X79741185Y-44288815D01*
X79644494Y-44209463D01*
X79534180Y-44150498D01*
X79414482Y-44114188D01*
X79290000Y-44101928D01*
X78483234Y-44101928D01*
X78595382Y-43965275D01*
X78719347Y-43733354D01*
X78795683Y-43481706D01*
X78821459Y-43220000D01*
X78795683Y-42958294D01*
X78719347Y-42706646D01*
X78595382Y-42474725D01*
X78428555Y-42271445D01*
X78225275Y-42104618D01*
X77993354Y-41980653D01*
X77741706Y-41904317D01*
X77545579Y-41885000D01*
X77414421Y-41885000D01*
X77218294Y-41904317D01*
X76966646Y-41980653D01*
X76734725Y-42104618D01*
X76531445Y-42271445D01*
X76364618Y-42474725D01*
X76357000Y-42488977D01*
X76357000Y-40170000D01*
X76568057Y-40170000D01*
X76595764Y-40451309D01*
X76677818Y-40721808D01*
X76811068Y-40971101D01*
X76990392Y-41189608D01*
X77208899Y-41368932D01*
X77458192Y-41502182D01*
X77728691Y-41584236D01*
X77939508Y-41605000D01*
X78080492Y-41605000D01*
X78291309Y-41584236D01*
X78561808Y-41502182D01*
X78811101Y-41368932D01*
X79029608Y-41189608D01*
X79208932Y-40971101D01*
X79280000Y-40838142D01*
X79351068Y-40971101D01*
X79530392Y-41189608D01*
X79748899Y-41368932D01*
X79998192Y-41502182D01*
X80268691Y-41584236D01*
X80479508Y-41605000D01*
X80620492Y-41605000D01*
X80831309Y-41584236D01*
X81101808Y-41502182D01*
X81351101Y-41368932D01*
X81569608Y-41189608D01*
X81748932Y-40971101D01*
X81820000Y-40838142D01*
X81891068Y-40971101D01*
X82070392Y-41189608D01*
X82288899Y-41368932D01*
X82538192Y-41502182D01*
X82808691Y-41584236D01*
X83019508Y-41605000D01*
X83160492Y-41605000D01*
X83371309Y-41584236D01*
X83641808Y-41502182D01*
X83891101Y-41368932D01*
X84109608Y-41189608D01*
X84288932Y-40971101D01*
X84360000Y-40838142D01*
X84431068Y-40971101D01*
X84610392Y-41189608D01*
X84828899Y-41368932D01*
X85078192Y-41502182D01*
X85348691Y-41584236D01*
X85559508Y-41605000D01*
X85700492Y-41605000D01*
X85911309Y-41584236D01*
X86181808Y-41502182D01*
X86431101Y-41368932D01*
X86649608Y-41189608D01*
X86828932Y-40971101D01*
X86962182Y-40721808D01*
X87044236Y-40451309D01*
X87071943Y-40170000D01*
X87044236Y-39888691D01*
X86962182Y-39618192D01*
X86828932Y-39368899D01*
X86649608Y-39150392D01*
X86431101Y-38971068D01*
X86181808Y-38837818D01*
X85911309Y-38755764D01*
X85700492Y-38735000D01*
X85559508Y-38735000D01*
X85348691Y-38755764D01*
X85078192Y-38837818D01*
X84828899Y-38971068D01*
X84610392Y-39150392D01*
X84431068Y-39368899D01*
X84360000Y-39501858D01*
X84288932Y-39368899D01*
X84109608Y-39150392D01*
X83891101Y-38971068D01*
X83641808Y-38837818D01*
X83371309Y-38755764D01*
X83160492Y-38735000D01*
X83019508Y-38735000D01*
X82808691Y-38755764D01*
X82538192Y-38837818D01*
X82288899Y-38971068D01*
X82070392Y-39150392D01*
X81891068Y-39368899D01*
X81820000Y-39501858D01*
X81748932Y-39368899D01*
X81569608Y-39150392D01*
X81351101Y-38971068D01*
X81101808Y-38837818D01*
X80831309Y-38755764D01*
X80620492Y-38735000D01*
X80479508Y-38735000D01*
X80268691Y-38755764D01*
X79998192Y-38837818D01*
X79748899Y-38971068D01*
X79530392Y-39150392D01*
X79351068Y-39368899D01*
X79280000Y-39501858D01*
X79208932Y-39368899D01*
X79029608Y-39150392D01*
X78811101Y-38971068D01*
X78561808Y-38837818D01*
X78291309Y-38755764D01*
X78080492Y-38735000D01*
X77939508Y-38735000D01*
X77728691Y-38755764D01*
X77458192Y-38837818D01*
X77208899Y-38971068D01*
X76990392Y-39150392D01*
X76811068Y-39368899D01*
X76677818Y-39618192D01*
X76595764Y-39888691D01*
X76568057Y-40170000D01*
X76357000Y-40170000D01*
X76357000Y-32899040D01*
X76618091Y-32899040D01*
X76712930Y-33163881D01*
X76857615Y-33405131D01*
X77046586Y-33613519D01*
X77272580Y-33781037D01*
X77526913Y-33901246D01*
X77660961Y-33941904D01*
X77883000Y-33819915D01*
X77883000Y-32677000D01*
X76739376Y-32677000D01*
X76618091Y-32899040D01*
X76357000Y-32899040D01*
X76357000Y-32200960D01*
X76618091Y-32200960D01*
X76739376Y-32423000D01*
X77883000Y-32423000D01*
X77883000Y-31280085D01*
X78137000Y-31280085D01*
X78137000Y-32423000D01*
X78157000Y-32423000D01*
X78157000Y-32677000D01*
X78137000Y-32677000D01*
X78137000Y-33819915D01*
X78359039Y-33941904D01*
X78493087Y-33901246D01*
X78747420Y-33781037D01*
X78973414Y-33613519D01*
X79162385Y-33405131D01*
X79277421Y-33213318D01*
X79351068Y-33351101D01*
X79530392Y-33569608D01*
X79748899Y-33748932D01*
X79998192Y-33882182D01*
X80268691Y-33964236D01*
X80479508Y-33985000D01*
X80620492Y-33985000D01*
X80831309Y-33964236D01*
X81101808Y-33882182D01*
X81351101Y-33748932D01*
X81569608Y-33569608D01*
X81748932Y-33351101D01*
X81820000Y-33218142D01*
X81891068Y-33351101D01*
X82070392Y-33569608D01*
X82288899Y-33748932D01*
X82538192Y-33882182D01*
X82808691Y-33964236D01*
X83019508Y-33985000D01*
X83160492Y-33985000D01*
X83371309Y-33964236D01*
X83641808Y-33882182D01*
X83891101Y-33748932D01*
X84109608Y-33569608D01*
X84202419Y-33456518D01*
X84204188Y-33474482D01*
X84240498Y-33594180D01*
X84299463Y-33704494D01*
X84378815Y-33801185D01*
X84475506Y-33880537D01*
X84585820Y-33939502D01*
X84705518Y-33975812D01*
X84830000Y-33988072D01*
X86430000Y-33988072D01*
X86554482Y-33975812D01*
X86674180Y-33939502D01*
X86784494Y-33880537D01*
X86881185Y-33801185D01*
X86960537Y-33704494D01*
X87019502Y-33594180D01*
X87055812Y-33474482D01*
X87068072Y-33350000D01*
X87068072Y-31750000D01*
X87055812Y-31625518D01*
X87019502Y-31505820D01*
X86960537Y-31395506D01*
X86881185Y-31298815D01*
X86784494Y-31219463D01*
X86674180Y-31160498D01*
X86554482Y-31124188D01*
X86430000Y-31111928D01*
X84830000Y-31111928D01*
X84705518Y-31124188D01*
X84585820Y-31160498D01*
X84475506Y-31219463D01*
X84378815Y-31298815D01*
X84299463Y-31395506D01*
X84240498Y-31505820D01*
X84204188Y-31625518D01*
X84202419Y-31643482D01*
X84109608Y-31530392D01*
X83891101Y-31351068D01*
X83641808Y-31217818D01*
X83371309Y-31135764D01*
X83160492Y-31115000D01*
X83019508Y-31115000D01*
X82808691Y-31135764D01*
X82538192Y-31217818D01*
X82288899Y-31351068D01*
X82070392Y-31530392D01*
X81891068Y-31748899D01*
X81820000Y-31881858D01*
X81748932Y-31748899D01*
X81569608Y-31530392D01*
X81351101Y-31351068D01*
X81101808Y-31217818D01*
X80831309Y-31135764D01*
X80620492Y-31115000D01*
X80479508Y-31115000D01*
X80268691Y-31135764D01*
X79998192Y-31217818D01*
X79748899Y-31351068D01*
X79530392Y-31530392D01*
X79351068Y-31748899D01*
X79277421Y-31886682D01*
X79162385Y-31694869D01*
X78973414Y-31486481D01*
X78747420Y-31318963D01*
X78493087Y-31198754D01*
X78359039Y-31158096D01*
X78137000Y-31280085D01*
X77883000Y-31280085D01*
X77660961Y-31158096D01*
X77526913Y-31198754D01*
X77272580Y-31318963D01*
X77046586Y-31486481D01*
X76857615Y-31694869D01*
X76712930Y-31936119D01*
X76618091Y-32200960D01*
X76357000Y-32200960D01*
X76357000Y-30487000D01*
X88283000Y-30487000D01*
X88283000Y-58463000D01*
X88283000Y-58463000D01*
G37*
X88283000Y-58463000D02*
X76357000Y-58463000D01*
X76357000Y-56396123D01*
X76500821Y-56396123D01*
X76610558Y-56718054D01*
X76780992Y-57012391D01*
X77005573Y-57267822D01*
X77275671Y-57474531D01*
X77580906Y-57624575D01*
X77793878Y-57689175D01*
X78063000Y-57571125D01*
X78063000Y-56127000D01*
X78317000Y-56127000D01*
X78317000Y-57571125D01*
X78586122Y-57689175D01*
X78799094Y-57624575D01*
X79104329Y-57474531D01*
X79374427Y-57267822D01*
X79599008Y-57012391D01*
X79769442Y-56718054D01*
X79818183Y-56575066D01*
X79880558Y-56758054D01*
X80050992Y-57052391D01*
X80275573Y-57307822D01*
X80545671Y-57514531D01*
X80850906Y-57664575D01*
X81063878Y-57729175D01*
X81333000Y-57611125D01*
X81333000Y-56167000D01*
X81587000Y-56167000D01*
X81587000Y-57611125D01*
X81856122Y-57729175D01*
X82069094Y-57664575D01*
X82374329Y-57514531D01*
X82644427Y-57307822D01*
X82869008Y-57052391D01*
X83039442Y-56758054D01*
X83149179Y-56436123D01*
X83031600Y-56167000D01*
X81587000Y-56167000D01*
X81333000Y-56167000D01*
X79888400Y-56167000D01*
X79833738Y-56292114D01*
X79761600Y-56127000D01*
X78317000Y-56127000D01*
X78063000Y-56127000D01*
X76618400Y-56127000D01*
X76500821Y-56396123D01*
X76357000Y-56396123D01*
X76357000Y-55603877D01*
X76500821Y-55603877D01*
X76618400Y-55873000D01*
X78063000Y-55873000D01*
X78063000Y-54428875D01*
X78317000Y-54428875D01*
X78317000Y-55873000D01*
X79761600Y-55873000D01*
X79816262Y-55747886D01*
X79888400Y-55913000D01*
X81333000Y-55913000D01*
X81333000Y-54468875D01*
X81587000Y-54468875D01*
X81587000Y-55913000D01*
X83031600Y-55913000D01*
X83149179Y-55643877D01*
X83039442Y-55321946D01*
X82869008Y-55027609D01*
X82644427Y-54772178D01*
X82374329Y-54565469D01*
X82069094Y-54415425D01*
X81856122Y-54350825D01*
X81587000Y-54468875D01*
X81333000Y-54468875D01*
X81063878Y-54350825D01*
X80850906Y-54415425D01*
X80545671Y-54565469D01*
X80275573Y-54772178D01*
X80050992Y-55027609D01*
X79880558Y-55321946D01*
X79831817Y-55464934D01*
X79769442Y-55281946D01*
X79599008Y-54987609D01*
X79374427Y-54732178D01*
X79104329Y-54525469D01*
X78799094Y-54375425D01*
X78586122Y-54310825D01*
X78317000Y-54428875D01*
X78063000Y-54428875D01*
X77793878Y-54310825D01*
X77580906Y-54375425D01*
X77275671Y-54525469D01*
X77005573Y-54732178D01*
X76780992Y-54987609D01*
X76610558Y-55281946D01*
X76500821Y-55603877D01*
X76357000Y-55603877D01*
X76357000Y-52950000D01*
X82908541Y-52950000D01*
X82934317Y-53211706D01*
X83010653Y-53463354D01*
X83134618Y-53695275D01*
X83301445Y-53898555D01*
X83504725Y-54065382D01*
X83736646Y-54189347D01*
X83988294Y-54265683D01*
X84184421Y-54285000D01*
X84315579Y-54285000D01*
X84511706Y-54265683D01*
X84763354Y-54189347D01*
X84995275Y-54065382D01*
X85198555Y-53898555D01*
X85356551Y-53706036D01*
X85391445Y-53748555D01*
X85594725Y-53915382D01*
X85826646Y-54039347D01*
X86078294Y-54115683D01*
X86274421Y-54135000D01*
X86405579Y-54135000D01*
X86601706Y-54115683D01*
X86853354Y-54039347D01*
X87085275Y-53915382D01*
X87288555Y-53748555D01*
X87455382Y-53545275D01*
X87579347Y-53313354D01*
X87655683Y-53061706D01*
X87681459Y-52800000D01*
X87655683Y-52538294D01*
X87579347Y-52286646D01*
X87455382Y-52054725D01*
X87288555Y-51851445D01*
X87085275Y-51684618D01*
X86853354Y-51560653D01*
X86601706Y-51484317D01*
X86405579Y-51465000D01*
X86274421Y-51465000D01*
X86078294Y-51484317D01*
X85826646Y-51560653D01*
X85594725Y-51684618D01*
X85391445Y-51851445D01*
X85233449Y-52043964D01*
X85198555Y-52001445D01*
X84995275Y-51834618D01*
X84763354Y-51710653D01*
X84511706Y-51634317D01*
X84315579Y-51615000D01*
X84184421Y-51615000D01*
X83988294Y-51634317D01*
X83736646Y-51710653D01*
X83504725Y-51834618D01*
X83301445Y-52001445D01*
X83134618Y-52204725D01*
X83010653Y-52436646D01*
X82934317Y-52688294D01*
X82908541Y-52950000D01*
X76357000Y-52950000D01*
X76357000Y-43951023D01*
X76364618Y-43965275D01*
X76531445Y-44168555D01*
X76658399Y-44272743D01*
X76638815Y-44288815D01*
X76559463Y-44385506D01*
X76500498Y-44495820D01*
X76464188Y-44615518D01*
X76451928Y-44740000D01*
X76451928Y-46940000D01*
X76464188Y-47064482D01*
X76500498Y-47184180D01*
X76559463Y-47294494D01*
X76638815Y-47391185D01*
X76735506Y-47470537D01*
X76845820Y-47529502D01*
X76965518Y-47565812D01*
X77090000Y-47578072D01*
X79290000Y-47578072D01*
X79414482Y-47565812D01*
X79534180Y-47529502D01*
X79644494Y-47470537D01*
X79741185Y-47391185D01*
X79812995Y-47303684D01*
X79829463Y-47334494D01*
X79908815Y-47431185D01*
X80005506Y-47510537D01*
X80115820Y-47569502D01*
X80235518Y-47605812D01*
X80360000Y-47618072D01*
X82560000Y-47618072D01*
X82684482Y-47605812D01*
X82804180Y-47569502D01*
X82914494Y-47510537D01*
X82974197Y-47461540D01*
X82966304Y-47480595D01*
X82915000Y-47738514D01*
X82915000Y-48001486D01*
X82966304Y-48259405D01*
X83066939Y-48502359D01*
X83213038Y-48721013D01*
X83398987Y-48906962D01*
X83617641Y-49053061D01*
X83860595Y-49153696D01*
X84118514Y-49205000D01*
X84381486Y-49205000D01*
X84639405Y-49153696D01*
X84882359Y-49053061D01*
X85101013Y-48906962D01*
X85286962Y-48721013D01*
X85353482Y-48621457D01*
X85488987Y-48756962D01*
X85707641Y-48903061D01*
X85950595Y-49003696D01*
X86208514Y-49055000D01*
X86471486Y-49055000D01*
X86729405Y-49003696D01*
X86972359Y-48903061D01*
X87191013Y-48756962D01*
X87376962Y-48571013D01*
X87523061Y-48352359D01*
X87623696Y-48109405D01*
X87675000Y-47851486D01*
X87675000Y-47588514D01*
X87623696Y-47330595D01*
X87523061Y-47087641D01*
X87376962Y-46868987D01*
X87191013Y-46683038D01*
X86972359Y-46536939D01*
X86729405Y-46436304D01*
X86471486Y-46385000D01*
X86208514Y-46385000D01*
X85950595Y-46436304D01*
X85707641Y-46536939D01*
X85488987Y-46683038D01*
X85303038Y-46868987D01*
X85236518Y-46968543D01*
X85101013Y-46833038D01*
X84882359Y-46686939D01*
X84639405Y-46586304D01*
X84381486Y-46535000D01*
X84118514Y-46535000D01*
X83860595Y-46586304D01*
X83617641Y-46686939D01*
X83398987Y-46833038D01*
X83213038Y-47018987D01*
X83190981Y-47051998D01*
X83198072Y-46980000D01*
X83198072Y-44780000D01*
X83185812Y-44655518D01*
X83149502Y-44535820D01*
X83099172Y-44441660D01*
X83192359Y-44403061D01*
X83411013Y-44256962D01*
X83596962Y-44071013D01*
X83743061Y-43852359D01*
X83843696Y-43609405D01*
X83895000Y-43351486D01*
X83895000Y-43088514D01*
X83843696Y-42830595D01*
X83743061Y-42587641D01*
X83596962Y-42368987D01*
X83411013Y-42183038D01*
X83192359Y-42036939D01*
X82949405Y-41936304D01*
X82691486Y-41885000D01*
X82428514Y-41885000D01*
X82170595Y-41936304D01*
X81927641Y-42036939D01*
X81708987Y-42183038D01*
X81523038Y-42368987D01*
X81376939Y-42587641D01*
X81276304Y-42830595D01*
X81225000Y-43088514D01*
X81225000Y-43351486D01*
X81276304Y-43609405D01*
X81376939Y-43852359D01*
X81523038Y-44071013D01*
X81593953Y-44141928D01*
X80360000Y-44141928D01*
X80235518Y-44154188D01*
X80115820Y-44190498D01*
X80005506Y-44249463D01*
X79908815Y-44328815D01*
X79837005Y-44416316D01*
X79820537Y-44385506D01*
X79741185Y-44288815D01*
X79644494Y-44209463D01*
X79534180Y-44150498D01*
X79414482Y-44114188D01*
X79290000Y-44101928D01*
X78483234Y-44101928D01*
X78595382Y-43965275D01*
X78719347Y-43733354D01*
X78795683Y-43481706D01*
X78821459Y-43220000D01*
X78795683Y-42958294D01*
X78719347Y-42706646D01*
X78595382Y-42474725D01*
X78428555Y-42271445D01*
X78225275Y-42104618D01*
X77993354Y-41980653D01*
X77741706Y-41904317D01*
X77545579Y-41885000D01*
X77414421Y-41885000D01*
X77218294Y-41904317D01*
X76966646Y-41980653D01*
X76734725Y-42104618D01*
X76531445Y-42271445D01*
X76364618Y-42474725D01*
X76357000Y-42488977D01*
X76357000Y-40170000D01*
X76568057Y-40170000D01*
X76595764Y-40451309D01*
X76677818Y-40721808D01*
X76811068Y-40971101D01*
X76990392Y-41189608D01*
X77208899Y-41368932D01*
X77458192Y-41502182D01*
X77728691Y-41584236D01*
X77939508Y-41605000D01*
X78080492Y-41605000D01*
X78291309Y-41584236D01*
X78561808Y-41502182D01*
X78811101Y-41368932D01*
X79029608Y-41189608D01*
X79208932Y-40971101D01*
X79280000Y-40838142D01*
X79351068Y-40971101D01*
X79530392Y-41189608D01*
X79748899Y-41368932D01*
X79998192Y-41502182D01*
X80268691Y-41584236D01*
X80479508Y-41605000D01*
X80620492Y-41605000D01*
X80831309Y-41584236D01*
X81101808Y-41502182D01*
X81351101Y-41368932D01*
X81569608Y-41189608D01*
X81748932Y-40971101D01*
X81820000Y-40838142D01*
X81891068Y-40971101D01*
X82070392Y-41189608D01*
X82288899Y-41368932D01*
X82538192Y-41502182D01*
X82808691Y-41584236D01*
X83019508Y-41605000D01*
X83160492Y-41605000D01*
X83371309Y-41584236D01*
X83641808Y-41502182D01*
X83891101Y-41368932D01*
X84109608Y-41189608D01*
X84288932Y-40971101D01*
X84360000Y-40838142D01*
X84431068Y-40971101D01*
X84610392Y-41189608D01*
X84828899Y-41368932D01*
X85078192Y-41502182D01*
X85348691Y-41584236D01*
X85559508Y-41605000D01*
X85700492Y-41605000D01*
X85911309Y-41584236D01*
X86181808Y-41502182D01*
X86431101Y-41368932D01*
X86649608Y-41189608D01*
X86828932Y-40971101D01*
X86962182Y-40721808D01*
X87044236Y-40451309D01*
X87071943Y-40170000D01*
X87044236Y-39888691D01*
X86962182Y-39618192D01*
X86828932Y-39368899D01*
X86649608Y-39150392D01*
X86431101Y-38971068D01*
X86181808Y-38837818D01*
X85911309Y-38755764D01*
X85700492Y-38735000D01*
X85559508Y-38735000D01*
X85348691Y-38755764D01*
X85078192Y-38837818D01*
X84828899Y-38971068D01*
X84610392Y-39150392D01*
X84431068Y-39368899D01*
X84360000Y-39501858D01*
X84288932Y-39368899D01*
X84109608Y-39150392D01*
X83891101Y-38971068D01*
X83641808Y-38837818D01*
X83371309Y-38755764D01*
X83160492Y-38735000D01*
X83019508Y-38735000D01*
X82808691Y-38755764D01*
X82538192Y-38837818D01*
X82288899Y-38971068D01*
X82070392Y-39150392D01*
X81891068Y-39368899D01*
X81820000Y-39501858D01*
X81748932Y-39368899D01*
X81569608Y-39150392D01*
X81351101Y-38971068D01*
X81101808Y-38837818D01*
X80831309Y-38755764D01*
X80620492Y-38735000D01*
X80479508Y-38735000D01*
X80268691Y-38755764D01*
X79998192Y-38837818D01*
X79748899Y-38971068D01*
X79530392Y-39150392D01*
X79351068Y-39368899D01*
X79280000Y-39501858D01*
X79208932Y-39368899D01*
X79029608Y-39150392D01*
X78811101Y-38971068D01*
X78561808Y-38837818D01*
X78291309Y-38755764D01*
X78080492Y-38735000D01*
X77939508Y-38735000D01*
X77728691Y-38755764D01*
X77458192Y-38837818D01*
X77208899Y-38971068D01*
X76990392Y-39150392D01*
X76811068Y-39368899D01*
X76677818Y-39618192D01*
X76595764Y-39888691D01*
X76568057Y-40170000D01*
X76357000Y-40170000D01*
X76357000Y-32899040D01*
X76618091Y-32899040D01*
X76712930Y-33163881D01*
X76857615Y-33405131D01*
X77046586Y-33613519D01*
X77272580Y-33781037D01*
X77526913Y-33901246D01*
X77660961Y-33941904D01*
X77883000Y-33819915D01*
X77883000Y-32677000D01*
X76739376Y-32677000D01*
X76618091Y-32899040D01*
X76357000Y-32899040D01*
X76357000Y-32200960D01*
X76618091Y-32200960D01*
X76739376Y-32423000D01*
X77883000Y-32423000D01*
X77883000Y-31280085D01*
X78137000Y-31280085D01*
X78137000Y-32423000D01*
X78157000Y-32423000D01*
X78157000Y-32677000D01*
X78137000Y-32677000D01*
X78137000Y-33819915D01*
X78359039Y-33941904D01*
X78493087Y-33901246D01*
X78747420Y-33781037D01*
X78973414Y-33613519D01*
X79162385Y-33405131D01*
X79277421Y-33213318D01*
X79351068Y-33351101D01*
X79530392Y-33569608D01*
X79748899Y-33748932D01*
X79998192Y-33882182D01*
X80268691Y-33964236D01*
X80479508Y-33985000D01*
X80620492Y-33985000D01*
X80831309Y-33964236D01*
X81101808Y-33882182D01*
X81351101Y-33748932D01*
X81569608Y-33569608D01*
X81748932Y-33351101D01*
X81820000Y-33218142D01*
X81891068Y-33351101D01*
X82070392Y-33569608D01*
X82288899Y-33748932D01*
X82538192Y-33882182D01*
X82808691Y-33964236D01*
X83019508Y-33985000D01*
X83160492Y-33985000D01*
X83371309Y-33964236D01*
X83641808Y-33882182D01*
X83891101Y-33748932D01*
X84109608Y-33569608D01*
X84202419Y-33456518D01*
X84204188Y-33474482D01*
X84240498Y-33594180D01*
X84299463Y-33704494D01*
X84378815Y-33801185D01*
X84475506Y-33880537D01*
X84585820Y-33939502D01*
X84705518Y-33975812D01*
X84830000Y-33988072D01*
X86430000Y-33988072D01*
X86554482Y-33975812D01*
X86674180Y-33939502D01*
X86784494Y-33880537D01*
X86881185Y-33801185D01*
X86960537Y-33704494D01*
X87019502Y-33594180D01*
X87055812Y-33474482D01*
X87068072Y-33350000D01*
X87068072Y-31750000D01*
X87055812Y-31625518D01*
X87019502Y-31505820D01*
X86960537Y-31395506D01*
X86881185Y-31298815D01*
X86784494Y-31219463D01*
X86674180Y-31160498D01*
X86554482Y-31124188D01*
X86430000Y-31111928D01*
X84830000Y-31111928D01*
X84705518Y-31124188D01*
X84585820Y-31160498D01*
X84475506Y-31219463D01*
X84378815Y-31298815D01*
X84299463Y-31395506D01*
X84240498Y-31505820D01*
X84204188Y-31625518D01*
X84202419Y-31643482D01*
X84109608Y-31530392D01*
X83891101Y-31351068D01*
X83641808Y-31217818D01*
X83371309Y-31135764D01*
X83160492Y-31115000D01*
X83019508Y-31115000D01*
X82808691Y-31135764D01*
X82538192Y-31217818D01*
X82288899Y-31351068D01*
X82070392Y-31530392D01*
X81891068Y-31748899D01*
X81820000Y-31881858D01*
X81748932Y-31748899D01*
X81569608Y-31530392D01*
X81351101Y-31351068D01*
X81101808Y-31217818D01*
X80831309Y-31135764D01*
X80620492Y-31115000D01*
X80479508Y-31115000D01*
X80268691Y-31135764D01*
X79998192Y-31217818D01*
X79748899Y-31351068D01*
X79530392Y-31530392D01*
X79351068Y-31748899D01*
X79277421Y-31886682D01*
X79162385Y-31694869D01*
X78973414Y-31486481D01*
X78747420Y-31318963D01*
X78493087Y-31198754D01*
X78359039Y-31158096D01*
X78137000Y-31280085D01*
X77883000Y-31280085D01*
X77660961Y-31158096D01*
X77526913Y-31198754D01*
X77272580Y-31318963D01*
X77046586Y-31486481D01*
X76857615Y-31694869D01*
X76712930Y-31936119D01*
X76618091Y-32200960D01*
X76357000Y-32200960D01*
X76357000Y-30487000D01*
X88283000Y-30487000D01*
X88283000Y-58463000D01*
M02*
