G04 #@! TF.GenerationSoftware,KiCad,Pcbnew,5.1.2-1.fc30*
G04 #@! TF.CreationDate,2019-07-15T00:45:36+02:00*
G04 #@! TF.ProjectId,BadUSB,42616455-5342-42e6-9b69-6361645f7063,rev?*
G04 #@! TF.SameCoordinates,Original*
G04 #@! TF.FileFunction,Soldermask,Bot*
G04 #@! TF.FilePolarity,Negative*
%FSLAX46Y46*%
G04 Gerber Fmt 4.6, Leading zero omitted, Abs format (unit mm)*
G04 Created by KiCad (PCBNEW 5.1.2-1.fc30) date 2019-07-15 00:45:36*
%MOMM*%
%LPD*%
G04 APERTURE LIST*
%ADD10C,0.100000*%
G04 APERTURE END LIST*
D10*
G36*
X92594933Y-47503592D02*
G01*
X91842933Y-47503592D01*
X91842933Y-46181592D01*
X92594933Y-46181592D01*
X92594933Y-47503592D01*
X92594933Y-47503592D01*
G37*
G36*
X88690871Y-45674308D02*
G01*
X88711490Y-45680563D01*
X88730486Y-45690716D01*
X88747141Y-45704384D01*
X88760809Y-45721039D01*
X88770962Y-45740035D01*
X88777217Y-45760654D01*
X88779933Y-45788232D01*
X88779933Y-46246952D01*
X88777217Y-46274530D01*
X88770962Y-46295149D01*
X88760809Y-46314145D01*
X88747141Y-46330800D01*
X88730486Y-46344468D01*
X88711490Y-46354621D01*
X88690871Y-46360876D01*
X88663293Y-46363592D01*
X88154573Y-46363592D01*
X88126995Y-46360876D01*
X88106376Y-46354621D01*
X88087380Y-46344468D01*
X88070725Y-46330800D01*
X88057057Y-46314145D01*
X88046904Y-46295149D01*
X88040649Y-46274530D01*
X88037933Y-46246952D01*
X88037933Y-45788232D01*
X88040649Y-45760654D01*
X88046904Y-45740035D01*
X88057057Y-45721039D01*
X88070725Y-45704384D01*
X88087380Y-45690716D01*
X88106376Y-45680563D01*
X88126995Y-45674308D01*
X88154573Y-45671592D01*
X88663293Y-45671592D01*
X88690871Y-45674308D01*
X88690871Y-45674308D01*
G37*
G36*
X88690871Y-44704308D02*
G01*
X88711490Y-44710563D01*
X88730486Y-44720716D01*
X88747141Y-44734384D01*
X88760809Y-44751039D01*
X88770962Y-44770035D01*
X88777217Y-44790654D01*
X88779933Y-44818232D01*
X88779933Y-45276952D01*
X88777217Y-45304530D01*
X88770962Y-45325149D01*
X88760809Y-45344145D01*
X88747141Y-45360800D01*
X88730486Y-45374468D01*
X88711490Y-45384621D01*
X88690871Y-45390876D01*
X88663293Y-45393592D01*
X88154573Y-45393592D01*
X88126995Y-45390876D01*
X88106376Y-45384621D01*
X88087380Y-45374468D01*
X88070725Y-45360800D01*
X88057057Y-45344145D01*
X88046904Y-45325149D01*
X88040649Y-45304530D01*
X88037933Y-45276952D01*
X88037933Y-44818232D01*
X88040649Y-44790654D01*
X88046904Y-44770035D01*
X88057057Y-44751039D01*
X88070725Y-44734384D01*
X88087380Y-44720716D01*
X88106376Y-44710563D01*
X88126995Y-44704308D01*
X88154573Y-44701592D01*
X88663293Y-44701592D01*
X88690871Y-44704308D01*
X88690871Y-44704308D01*
G37*
G36*
X91644933Y-44883592D02*
G01*
X90892933Y-44883592D01*
X90892933Y-43561592D01*
X91644933Y-43561592D01*
X91644933Y-44883592D01*
X91644933Y-44883592D01*
G37*
G36*
X93544933Y-44883592D02*
G01*
X92792933Y-44883592D01*
X92792933Y-43561592D01*
X93544933Y-43561592D01*
X93544933Y-44883592D01*
X93544933Y-44883592D01*
G37*
G36*
X94715871Y-42354308D02*
G01*
X94736490Y-42360563D01*
X94755486Y-42370716D01*
X94772141Y-42384384D01*
X94785809Y-42401039D01*
X94795962Y-42420035D01*
X94802217Y-42440654D01*
X94804933Y-42468232D01*
X94804933Y-42976952D01*
X94802217Y-43004530D01*
X94795962Y-43025149D01*
X94785809Y-43044145D01*
X94772141Y-43060800D01*
X94755486Y-43074468D01*
X94736490Y-43084621D01*
X94715871Y-43090876D01*
X94688293Y-43093592D01*
X94229573Y-43093592D01*
X94201995Y-43090876D01*
X94181376Y-43084621D01*
X94162380Y-43074468D01*
X94145725Y-43060800D01*
X94132057Y-43044145D01*
X94121904Y-43025149D01*
X94115649Y-43004530D01*
X94112933Y-42976952D01*
X94112933Y-42468232D01*
X94115649Y-42440654D01*
X94121904Y-42420035D01*
X94132057Y-42401039D01*
X94145725Y-42384384D01*
X94162380Y-42370716D01*
X94181376Y-42360563D01*
X94201995Y-42354308D01*
X94229573Y-42351592D01*
X94688293Y-42351592D01*
X94715871Y-42354308D01*
X94715871Y-42354308D01*
G37*
G36*
X93745871Y-42354308D02*
G01*
X93766490Y-42360563D01*
X93785486Y-42370716D01*
X93802141Y-42384384D01*
X93815809Y-42401039D01*
X93825962Y-42420035D01*
X93832217Y-42440654D01*
X93834933Y-42468232D01*
X93834933Y-42976952D01*
X93832217Y-43004530D01*
X93825962Y-43025149D01*
X93815809Y-43044145D01*
X93802141Y-43060800D01*
X93785486Y-43074468D01*
X93766490Y-43084621D01*
X93745871Y-43090876D01*
X93718293Y-43093592D01*
X93259573Y-43093592D01*
X93231995Y-43090876D01*
X93211376Y-43084621D01*
X93192380Y-43074468D01*
X93175725Y-43060800D01*
X93162057Y-43044145D01*
X93151904Y-43025149D01*
X93145649Y-43004530D01*
X93142933Y-42976952D01*
X93142933Y-42468232D01*
X93145649Y-42440654D01*
X93151904Y-42420035D01*
X93162057Y-42401039D01*
X93175725Y-42384384D01*
X93192380Y-42370716D01*
X93211376Y-42360563D01*
X93231995Y-42354308D01*
X93259573Y-42351592D01*
X93718293Y-42351592D01*
X93745871Y-42354308D01*
X93745871Y-42354308D01*
G37*
G36*
X91205871Y-42354308D02*
G01*
X91226490Y-42360563D01*
X91245486Y-42370716D01*
X91262141Y-42384384D01*
X91275809Y-42401039D01*
X91285962Y-42420035D01*
X91292217Y-42440654D01*
X91294933Y-42468232D01*
X91294933Y-42976952D01*
X91292217Y-43004530D01*
X91285962Y-43025149D01*
X91275809Y-43044145D01*
X91262141Y-43060800D01*
X91245486Y-43074468D01*
X91226490Y-43084621D01*
X91205871Y-43090876D01*
X91178293Y-43093592D01*
X90719573Y-43093592D01*
X90691995Y-43090876D01*
X90671376Y-43084621D01*
X90652380Y-43074468D01*
X90635725Y-43060800D01*
X90622057Y-43044145D01*
X90611904Y-43025149D01*
X90605649Y-43004530D01*
X90602933Y-42976952D01*
X90602933Y-42468232D01*
X90605649Y-42440654D01*
X90611904Y-42420035D01*
X90622057Y-42401039D01*
X90635725Y-42384384D01*
X90652380Y-42370716D01*
X90671376Y-42360563D01*
X90691995Y-42354308D01*
X90719573Y-42351592D01*
X91178293Y-42351592D01*
X91205871Y-42354308D01*
X91205871Y-42354308D01*
G37*
G36*
X90235871Y-42354308D02*
G01*
X90256490Y-42360563D01*
X90275486Y-42370716D01*
X90292141Y-42384384D01*
X90305809Y-42401039D01*
X90315962Y-42420035D01*
X90322217Y-42440654D01*
X90324933Y-42468232D01*
X90324933Y-42976952D01*
X90322217Y-43004530D01*
X90315962Y-43025149D01*
X90305809Y-43044145D01*
X90292141Y-43060800D01*
X90275486Y-43074468D01*
X90256490Y-43084621D01*
X90235871Y-43090876D01*
X90208293Y-43093592D01*
X89749573Y-43093592D01*
X89721995Y-43090876D01*
X89701376Y-43084621D01*
X89682380Y-43074468D01*
X89665725Y-43060800D01*
X89652057Y-43044145D01*
X89641904Y-43025149D01*
X89635649Y-43004530D01*
X89632933Y-42976952D01*
X89632933Y-42468232D01*
X89635649Y-42440654D01*
X89641904Y-42420035D01*
X89652057Y-42401039D01*
X89665725Y-42384384D01*
X89682380Y-42370716D01*
X89701376Y-42360563D01*
X89721995Y-42354308D01*
X89749573Y-42351592D01*
X90208293Y-42351592D01*
X90235871Y-42354308D01*
X90235871Y-42354308D01*
G37*
M02*
