G04 #@! TF.GenerationSoftware,KiCad,Pcbnew,5.1.2-1.fc30*
G04 #@! TF.CreationDate,2019-07-15T00:45:36+02:00*
G04 #@! TF.ProjectId,BadUSB,42616455-5342-42e6-9b69-6361645f7063,rev?*
G04 #@! TF.SameCoordinates,Original*
G04 #@! TF.FileFunction,Copper,L1,Top*
G04 #@! TF.FilePolarity,Positive*
%FSLAX46Y46*%
G04 Gerber Fmt 4.6, Leading zero omitted, Abs format (unit mm)*
G04 Created by KiCad (PCBNEW 5.1.2-1.fc30) date 2019-07-15 00:45:36*
%MOMM*%
%LPD*%
G04 APERTURE LIST*
%ADD10R,2.000000X7.500000*%
%ADD11R,1.900000X8.000000*%
%ADD12R,1.700000X0.650000*%
%ADD13C,0.800000*%
%ADD14C,0.250000*%
%ADD15C,0.400000*%
%ADD16C,0.254000*%
G04 APERTURE END LIST*
D10*
X93780000Y-55680000D03*
X91180000Y-55680000D03*
D11*
X88670000Y-55930000D03*
X96290000Y-55930000D03*
D12*
X88568933Y-43357592D03*
X88568933Y-44627592D03*
X88568933Y-45897592D03*
X88568933Y-47167592D03*
X95868933Y-47167592D03*
X95868933Y-45897592D03*
X95868933Y-44627592D03*
X95868933Y-43357592D03*
D13*
X91270000Y-45540000D03*
X93750000Y-45410000D03*
X90015083Y-47250598D03*
X95290000Y-42680000D03*
X90010739Y-46017592D03*
X89902378Y-44185802D03*
D14*
X91270000Y-55590000D02*
X91180000Y-55680000D01*
X91270000Y-45540000D02*
X91270000Y-55590000D01*
X93750000Y-55650000D02*
X93780000Y-55680000D01*
X93750000Y-45410000D02*
X93750000Y-55650000D01*
X88651939Y-47250598D02*
X88568933Y-47167592D01*
X90015083Y-47250598D02*
X88651939Y-47250598D01*
X88670000Y-47268659D02*
X88568933Y-47167592D01*
D15*
X88670000Y-55930000D02*
X88670000Y-47268659D01*
D14*
X96028933Y-43197592D02*
X95868933Y-43357592D01*
X95717468Y-43357592D02*
X95082468Y-42722592D01*
X95868933Y-43357592D02*
X95717468Y-43357592D01*
X95868933Y-43188533D02*
X95205200Y-42524800D01*
X95868933Y-43357592D02*
X95868933Y-43188533D01*
D15*
X97207592Y-43357592D02*
X95868933Y-43357592D01*
X97930000Y-44080000D02*
X97207592Y-43357592D01*
X97930000Y-50040000D02*
X97930000Y-44080000D01*
X96290000Y-55930000D02*
X96290000Y-51680000D01*
X96290000Y-51680000D02*
X97930000Y-50040000D01*
D14*
X89890739Y-45897592D02*
X90010739Y-46017592D01*
X88568933Y-45897592D02*
X89890739Y-45897592D01*
X89093933Y-44627592D02*
X88568933Y-44627592D01*
X89093933Y-44627592D02*
X89658895Y-44062630D01*
X89658895Y-44062630D02*
X89779206Y-44062630D01*
X89779206Y-44062630D02*
X89902378Y-44185802D01*
D16*
G36*
X90510000Y-48613000D02*
G01*
X87105000Y-48613000D01*
X87105000Y-47656234D01*
X87129431Y-47736772D01*
X87188396Y-47847086D01*
X87267748Y-47943777D01*
X87364439Y-48023129D01*
X87474753Y-48082094D01*
X87594451Y-48118404D01*
X87718933Y-48130664D01*
X88283183Y-48127592D01*
X88441933Y-47968842D01*
X88441933Y-47294592D01*
X88695933Y-47294592D01*
X88695933Y-47968842D01*
X88854683Y-48127592D01*
X89418933Y-48130664D01*
X89543415Y-48118404D01*
X89663113Y-48082094D01*
X89773427Y-48023129D01*
X89870118Y-47943777D01*
X89949470Y-47847086D01*
X90008435Y-47736772D01*
X90044745Y-47617074D01*
X90057005Y-47492592D01*
X90053933Y-47453342D01*
X89895183Y-47294592D01*
X88695933Y-47294592D01*
X88441933Y-47294592D01*
X88421933Y-47294592D01*
X88421933Y-47040592D01*
X88441933Y-47040592D01*
X88441933Y-47020592D01*
X88695933Y-47020592D01*
X88695933Y-47040592D01*
X89848471Y-47040592D01*
X89908800Y-47052592D01*
X90112678Y-47052592D01*
X90312637Y-47012818D01*
X90500995Y-46934797D01*
X90510000Y-46928780D01*
X90510000Y-48613000D01*
X90510000Y-48613000D01*
G37*
X90510000Y-48613000D02*
X87105000Y-48613000D01*
X87105000Y-47656234D01*
X87129431Y-47736772D01*
X87188396Y-47847086D01*
X87267748Y-47943777D01*
X87364439Y-48023129D01*
X87474753Y-48082094D01*
X87594451Y-48118404D01*
X87718933Y-48130664D01*
X88283183Y-48127592D01*
X88441933Y-47968842D01*
X88441933Y-47294592D01*
X88695933Y-47294592D01*
X88695933Y-47968842D01*
X88854683Y-48127592D01*
X89418933Y-48130664D01*
X89543415Y-48118404D01*
X89663113Y-48082094D01*
X89773427Y-48023129D01*
X89870118Y-47943777D01*
X89949470Y-47847086D01*
X90008435Y-47736772D01*
X90044745Y-47617074D01*
X90057005Y-47492592D01*
X90053933Y-47453342D01*
X89895183Y-47294592D01*
X88695933Y-47294592D01*
X88441933Y-47294592D01*
X88421933Y-47294592D01*
X88421933Y-47040592D01*
X88441933Y-47040592D01*
X88441933Y-47020592D01*
X88695933Y-47020592D01*
X88695933Y-47040592D01*
X89848471Y-47040592D01*
X89908800Y-47052592D01*
X90112678Y-47052592D01*
X90312637Y-47012818D01*
X90500995Y-46934797D01*
X90510000Y-46928780D01*
X90510000Y-48613000D01*
M02*
