G04 #@! TF.GenerationSoftware,KiCad,Pcbnew,5.1.2-1.fc30*
G04 #@! TF.CreationDate,2019-07-15T00:45:36+02:00*
G04 #@! TF.ProjectId,BadUSB,42616455-5342-42e6-9b69-6361645f7063,rev?*
G04 #@! TF.SameCoordinates,Original*
G04 #@! TF.FileFunction,Soldermask,Top*
G04 #@! TF.FilePolarity,Negative*
%FSLAX46Y46*%
G04 Gerber Fmt 4.6, Leading zero omitted, Abs format (unit mm)*
G04 Created by KiCad (PCBNEW 5.1.2-1.fc30) date 2019-07-15 00:45:36*
%MOMM*%
%LPD*%
G04 APERTURE LIST*
%ADD10C,0.100000*%
G04 APERTURE END LIST*
D10*
G36*
X89671000Y-59981000D02*
G01*
X87669000Y-59981000D01*
X87669000Y-51879000D01*
X89671000Y-51879000D01*
X89671000Y-59981000D01*
X89671000Y-59981000D01*
G37*
G36*
X97291000Y-59981000D02*
G01*
X95289000Y-59981000D01*
X95289000Y-51879000D01*
X97291000Y-51879000D01*
X97291000Y-59981000D01*
X97291000Y-59981000D01*
G37*
G36*
X94831000Y-59481000D02*
G01*
X92729000Y-59481000D01*
X92729000Y-51879000D01*
X94831000Y-51879000D01*
X94831000Y-59481000D01*
X94831000Y-59481000D01*
G37*
G36*
X92231000Y-59481000D02*
G01*
X90129000Y-59481000D01*
X90129000Y-51879000D01*
X92231000Y-51879000D01*
X92231000Y-59481000D01*
X92231000Y-59481000D01*
G37*
G36*
X96769933Y-47543592D02*
G01*
X94967933Y-47543592D01*
X94967933Y-46791592D01*
X96769933Y-46791592D01*
X96769933Y-47543592D01*
X96769933Y-47543592D01*
G37*
G36*
X89469933Y-47543592D02*
G01*
X87667933Y-47543592D01*
X87667933Y-46791592D01*
X89469933Y-46791592D01*
X89469933Y-47543592D01*
X89469933Y-47543592D01*
G37*
G36*
X89469933Y-46273592D02*
G01*
X87667933Y-46273592D01*
X87667933Y-45521592D01*
X89469933Y-45521592D01*
X89469933Y-46273592D01*
X89469933Y-46273592D01*
G37*
G36*
X96769933Y-46273592D02*
G01*
X94967933Y-46273592D01*
X94967933Y-45521592D01*
X96769933Y-45521592D01*
X96769933Y-46273592D01*
X96769933Y-46273592D01*
G37*
G36*
X89469933Y-45003592D02*
G01*
X87667933Y-45003592D01*
X87667933Y-44251592D01*
X89469933Y-44251592D01*
X89469933Y-45003592D01*
X89469933Y-45003592D01*
G37*
G36*
X96769933Y-45003592D02*
G01*
X94967933Y-45003592D01*
X94967933Y-44251592D01*
X96769933Y-44251592D01*
X96769933Y-45003592D01*
X96769933Y-45003592D01*
G37*
G36*
X89469933Y-43733592D02*
G01*
X87667933Y-43733592D01*
X87667933Y-42981592D01*
X89469933Y-42981592D01*
X89469933Y-43733592D01*
X89469933Y-43733592D01*
G37*
G36*
X96769933Y-43733592D02*
G01*
X94967933Y-43733592D01*
X94967933Y-42981592D01*
X96769933Y-42981592D01*
X96769933Y-43733592D01*
X96769933Y-43733592D01*
G37*
M02*
