G04 #@! TF.GenerationSoftware,KiCad,Pcbnew,5.1.2-1.fc30*
G04 #@! TF.CreationDate,2019-07-15T00:45:36+02:00*
G04 #@! TF.ProjectId,BadUSB,42616455-5342-42e6-9b69-6361645f7063,rev?*
G04 #@! TF.SameCoordinates,Original*
G04 #@! TF.FileFunction,Copper,L2,Bot*
G04 #@! TF.FilePolarity,Positive*
%FSLAX46Y46*%
G04 Gerber Fmt 4.6, Leading zero omitted, Abs format (unit mm)*
G04 Created by KiCad (PCBNEW 5.1.2-1.fc30) date 2019-07-15 00:45:36*
%MOMM*%
%LPD*%
G04 APERTURE LIST*
%ADD10R,0.650000X1.220000*%
%ADD11C,0.100000*%
%ADD12C,0.590000*%
%ADD13C,0.800000*%
%ADD14C,0.250000*%
%ADD15C,0.254000*%
G04 APERTURE END LIST*
D10*
X92218933Y-46842592D03*
X93168933Y-44222592D03*
X91268933Y-44222592D03*
D11*
G36*
X88595891Y-45723302D02*
G01*
X88610209Y-45725426D01*
X88624250Y-45728943D01*
X88637879Y-45733820D01*
X88650964Y-45740009D01*
X88663380Y-45747450D01*
X88675006Y-45756073D01*
X88685731Y-45765794D01*
X88695452Y-45776519D01*
X88704075Y-45788145D01*
X88711516Y-45800561D01*
X88717705Y-45813646D01*
X88722582Y-45827275D01*
X88726099Y-45841316D01*
X88728223Y-45855634D01*
X88728933Y-45870092D01*
X88728933Y-46165092D01*
X88728223Y-46179550D01*
X88726099Y-46193868D01*
X88722582Y-46207909D01*
X88717705Y-46221538D01*
X88711516Y-46234623D01*
X88704075Y-46247039D01*
X88695452Y-46258665D01*
X88685731Y-46269390D01*
X88675006Y-46279111D01*
X88663380Y-46287734D01*
X88650964Y-46295175D01*
X88637879Y-46301364D01*
X88624250Y-46306241D01*
X88610209Y-46309758D01*
X88595891Y-46311882D01*
X88581433Y-46312592D01*
X88236433Y-46312592D01*
X88221975Y-46311882D01*
X88207657Y-46309758D01*
X88193616Y-46306241D01*
X88179987Y-46301364D01*
X88166902Y-46295175D01*
X88154486Y-46287734D01*
X88142860Y-46279111D01*
X88132135Y-46269390D01*
X88122414Y-46258665D01*
X88113791Y-46247039D01*
X88106350Y-46234623D01*
X88100161Y-46221538D01*
X88095284Y-46207909D01*
X88091767Y-46193868D01*
X88089643Y-46179550D01*
X88088933Y-46165092D01*
X88088933Y-45870092D01*
X88089643Y-45855634D01*
X88091767Y-45841316D01*
X88095284Y-45827275D01*
X88100161Y-45813646D01*
X88106350Y-45800561D01*
X88113791Y-45788145D01*
X88122414Y-45776519D01*
X88132135Y-45765794D01*
X88142860Y-45756073D01*
X88154486Y-45747450D01*
X88166902Y-45740009D01*
X88179987Y-45733820D01*
X88193616Y-45728943D01*
X88207657Y-45725426D01*
X88221975Y-45723302D01*
X88236433Y-45722592D01*
X88581433Y-45722592D01*
X88595891Y-45723302D01*
X88595891Y-45723302D01*
G37*
D12*
X88408933Y-46017592D03*
D11*
G36*
X88595891Y-44753302D02*
G01*
X88610209Y-44755426D01*
X88624250Y-44758943D01*
X88637879Y-44763820D01*
X88650964Y-44770009D01*
X88663380Y-44777450D01*
X88675006Y-44786073D01*
X88685731Y-44795794D01*
X88695452Y-44806519D01*
X88704075Y-44818145D01*
X88711516Y-44830561D01*
X88717705Y-44843646D01*
X88722582Y-44857275D01*
X88726099Y-44871316D01*
X88728223Y-44885634D01*
X88728933Y-44900092D01*
X88728933Y-45195092D01*
X88728223Y-45209550D01*
X88726099Y-45223868D01*
X88722582Y-45237909D01*
X88717705Y-45251538D01*
X88711516Y-45264623D01*
X88704075Y-45277039D01*
X88695452Y-45288665D01*
X88685731Y-45299390D01*
X88675006Y-45309111D01*
X88663380Y-45317734D01*
X88650964Y-45325175D01*
X88637879Y-45331364D01*
X88624250Y-45336241D01*
X88610209Y-45339758D01*
X88595891Y-45341882D01*
X88581433Y-45342592D01*
X88236433Y-45342592D01*
X88221975Y-45341882D01*
X88207657Y-45339758D01*
X88193616Y-45336241D01*
X88179987Y-45331364D01*
X88166902Y-45325175D01*
X88154486Y-45317734D01*
X88142860Y-45309111D01*
X88132135Y-45299390D01*
X88122414Y-45288665D01*
X88113791Y-45277039D01*
X88106350Y-45264623D01*
X88100161Y-45251538D01*
X88095284Y-45237909D01*
X88091767Y-45223868D01*
X88089643Y-45209550D01*
X88088933Y-45195092D01*
X88088933Y-44900092D01*
X88089643Y-44885634D01*
X88091767Y-44871316D01*
X88095284Y-44857275D01*
X88100161Y-44843646D01*
X88106350Y-44830561D01*
X88113791Y-44818145D01*
X88122414Y-44806519D01*
X88132135Y-44795794D01*
X88142860Y-44786073D01*
X88154486Y-44777450D01*
X88166902Y-44770009D01*
X88179987Y-44763820D01*
X88193616Y-44758943D01*
X88207657Y-44755426D01*
X88221975Y-44753302D01*
X88236433Y-44752592D01*
X88581433Y-44752592D01*
X88595891Y-44753302D01*
X88595891Y-44753302D01*
G37*
D12*
X88408933Y-45047592D03*
D11*
G36*
X90140891Y-42403302D02*
G01*
X90155209Y-42405426D01*
X90169250Y-42408943D01*
X90182879Y-42413820D01*
X90195964Y-42420009D01*
X90208380Y-42427450D01*
X90220006Y-42436073D01*
X90230731Y-42445794D01*
X90240452Y-42456519D01*
X90249075Y-42468145D01*
X90256516Y-42480561D01*
X90262705Y-42493646D01*
X90267582Y-42507275D01*
X90271099Y-42521316D01*
X90273223Y-42535634D01*
X90273933Y-42550092D01*
X90273933Y-42895092D01*
X90273223Y-42909550D01*
X90271099Y-42923868D01*
X90267582Y-42937909D01*
X90262705Y-42951538D01*
X90256516Y-42964623D01*
X90249075Y-42977039D01*
X90240452Y-42988665D01*
X90230731Y-42999390D01*
X90220006Y-43009111D01*
X90208380Y-43017734D01*
X90195964Y-43025175D01*
X90182879Y-43031364D01*
X90169250Y-43036241D01*
X90155209Y-43039758D01*
X90140891Y-43041882D01*
X90126433Y-43042592D01*
X89831433Y-43042592D01*
X89816975Y-43041882D01*
X89802657Y-43039758D01*
X89788616Y-43036241D01*
X89774987Y-43031364D01*
X89761902Y-43025175D01*
X89749486Y-43017734D01*
X89737860Y-43009111D01*
X89727135Y-42999390D01*
X89717414Y-42988665D01*
X89708791Y-42977039D01*
X89701350Y-42964623D01*
X89695161Y-42951538D01*
X89690284Y-42937909D01*
X89686767Y-42923868D01*
X89684643Y-42909550D01*
X89683933Y-42895092D01*
X89683933Y-42550092D01*
X89684643Y-42535634D01*
X89686767Y-42521316D01*
X89690284Y-42507275D01*
X89695161Y-42493646D01*
X89701350Y-42480561D01*
X89708791Y-42468145D01*
X89717414Y-42456519D01*
X89727135Y-42445794D01*
X89737860Y-42436073D01*
X89749486Y-42427450D01*
X89761902Y-42420009D01*
X89774987Y-42413820D01*
X89788616Y-42408943D01*
X89802657Y-42405426D01*
X89816975Y-42403302D01*
X89831433Y-42402592D01*
X90126433Y-42402592D01*
X90140891Y-42403302D01*
X90140891Y-42403302D01*
G37*
D12*
X89978933Y-42722592D03*
D11*
G36*
X91110891Y-42403302D02*
G01*
X91125209Y-42405426D01*
X91139250Y-42408943D01*
X91152879Y-42413820D01*
X91165964Y-42420009D01*
X91178380Y-42427450D01*
X91190006Y-42436073D01*
X91200731Y-42445794D01*
X91210452Y-42456519D01*
X91219075Y-42468145D01*
X91226516Y-42480561D01*
X91232705Y-42493646D01*
X91237582Y-42507275D01*
X91241099Y-42521316D01*
X91243223Y-42535634D01*
X91243933Y-42550092D01*
X91243933Y-42895092D01*
X91243223Y-42909550D01*
X91241099Y-42923868D01*
X91237582Y-42937909D01*
X91232705Y-42951538D01*
X91226516Y-42964623D01*
X91219075Y-42977039D01*
X91210452Y-42988665D01*
X91200731Y-42999390D01*
X91190006Y-43009111D01*
X91178380Y-43017734D01*
X91165964Y-43025175D01*
X91152879Y-43031364D01*
X91139250Y-43036241D01*
X91125209Y-43039758D01*
X91110891Y-43041882D01*
X91096433Y-43042592D01*
X90801433Y-43042592D01*
X90786975Y-43041882D01*
X90772657Y-43039758D01*
X90758616Y-43036241D01*
X90744987Y-43031364D01*
X90731902Y-43025175D01*
X90719486Y-43017734D01*
X90707860Y-43009111D01*
X90697135Y-42999390D01*
X90687414Y-42988665D01*
X90678791Y-42977039D01*
X90671350Y-42964623D01*
X90665161Y-42951538D01*
X90660284Y-42937909D01*
X90656767Y-42923868D01*
X90654643Y-42909550D01*
X90653933Y-42895092D01*
X90653933Y-42550092D01*
X90654643Y-42535634D01*
X90656767Y-42521316D01*
X90660284Y-42507275D01*
X90665161Y-42493646D01*
X90671350Y-42480561D01*
X90678791Y-42468145D01*
X90687414Y-42456519D01*
X90697135Y-42445794D01*
X90707860Y-42436073D01*
X90719486Y-42427450D01*
X90731902Y-42420009D01*
X90744987Y-42413820D01*
X90758616Y-42408943D01*
X90772657Y-42405426D01*
X90786975Y-42403302D01*
X90801433Y-42402592D01*
X91096433Y-42402592D01*
X91110891Y-42403302D01*
X91110891Y-42403302D01*
G37*
D12*
X90948933Y-42722592D03*
D11*
G36*
X94620891Y-42403302D02*
G01*
X94635209Y-42405426D01*
X94649250Y-42408943D01*
X94662879Y-42413820D01*
X94675964Y-42420009D01*
X94688380Y-42427450D01*
X94700006Y-42436073D01*
X94710731Y-42445794D01*
X94720452Y-42456519D01*
X94729075Y-42468145D01*
X94736516Y-42480561D01*
X94742705Y-42493646D01*
X94747582Y-42507275D01*
X94751099Y-42521316D01*
X94753223Y-42535634D01*
X94753933Y-42550092D01*
X94753933Y-42895092D01*
X94753223Y-42909550D01*
X94751099Y-42923868D01*
X94747582Y-42937909D01*
X94742705Y-42951538D01*
X94736516Y-42964623D01*
X94729075Y-42977039D01*
X94720452Y-42988665D01*
X94710731Y-42999390D01*
X94700006Y-43009111D01*
X94688380Y-43017734D01*
X94675964Y-43025175D01*
X94662879Y-43031364D01*
X94649250Y-43036241D01*
X94635209Y-43039758D01*
X94620891Y-43041882D01*
X94606433Y-43042592D01*
X94311433Y-43042592D01*
X94296975Y-43041882D01*
X94282657Y-43039758D01*
X94268616Y-43036241D01*
X94254987Y-43031364D01*
X94241902Y-43025175D01*
X94229486Y-43017734D01*
X94217860Y-43009111D01*
X94207135Y-42999390D01*
X94197414Y-42988665D01*
X94188791Y-42977039D01*
X94181350Y-42964623D01*
X94175161Y-42951538D01*
X94170284Y-42937909D01*
X94166767Y-42923868D01*
X94164643Y-42909550D01*
X94163933Y-42895092D01*
X94163933Y-42550092D01*
X94164643Y-42535634D01*
X94166767Y-42521316D01*
X94170284Y-42507275D01*
X94175161Y-42493646D01*
X94181350Y-42480561D01*
X94188791Y-42468145D01*
X94197414Y-42456519D01*
X94207135Y-42445794D01*
X94217860Y-42436073D01*
X94229486Y-42427450D01*
X94241902Y-42420009D01*
X94254987Y-42413820D01*
X94268616Y-42408943D01*
X94282657Y-42405426D01*
X94296975Y-42403302D01*
X94311433Y-42402592D01*
X94606433Y-42402592D01*
X94620891Y-42403302D01*
X94620891Y-42403302D01*
G37*
D12*
X94458933Y-42722592D03*
D11*
G36*
X93650891Y-42403302D02*
G01*
X93665209Y-42405426D01*
X93679250Y-42408943D01*
X93692879Y-42413820D01*
X93705964Y-42420009D01*
X93718380Y-42427450D01*
X93730006Y-42436073D01*
X93740731Y-42445794D01*
X93750452Y-42456519D01*
X93759075Y-42468145D01*
X93766516Y-42480561D01*
X93772705Y-42493646D01*
X93777582Y-42507275D01*
X93781099Y-42521316D01*
X93783223Y-42535634D01*
X93783933Y-42550092D01*
X93783933Y-42895092D01*
X93783223Y-42909550D01*
X93781099Y-42923868D01*
X93777582Y-42937909D01*
X93772705Y-42951538D01*
X93766516Y-42964623D01*
X93759075Y-42977039D01*
X93750452Y-42988665D01*
X93740731Y-42999390D01*
X93730006Y-43009111D01*
X93718380Y-43017734D01*
X93705964Y-43025175D01*
X93692879Y-43031364D01*
X93679250Y-43036241D01*
X93665209Y-43039758D01*
X93650891Y-43041882D01*
X93636433Y-43042592D01*
X93341433Y-43042592D01*
X93326975Y-43041882D01*
X93312657Y-43039758D01*
X93298616Y-43036241D01*
X93284987Y-43031364D01*
X93271902Y-43025175D01*
X93259486Y-43017734D01*
X93247860Y-43009111D01*
X93237135Y-42999390D01*
X93227414Y-42988665D01*
X93218791Y-42977039D01*
X93211350Y-42964623D01*
X93205161Y-42951538D01*
X93200284Y-42937909D01*
X93196767Y-42923868D01*
X93194643Y-42909550D01*
X93193933Y-42895092D01*
X93193933Y-42550092D01*
X93194643Y-42535634D01*
X93196767Y-42521316D01*
X93200284Y-42507275D01*
X93205161Y-42493646D01*
X93211350Y-42480561D01*
X93218791Y-42468145D01*
X93227414Y-42456519D01*
X93237135Y-42445794D01*
X93247860Y-42436073D01*
X93259486Y-42427450D01*
X93271902Y-42420009D01*
X93284987Y-42413820D01*
X93298616Y-42408943D01*
X93312657Y-42405426D01*
X93326975Y-42403302D01*
X93341433Y-42402592D01*
X93636433Y-42402592D01*
X93650891Y-42403302D01*
X93650891Y-42403302D01*
G37*
D12*
X93488933Y-42722592D03*
D13*
X91270000Y-45540000D03*
X93750000Y-45410000D03*
X90015083Y-47250598D03*
X95290000Y-42680000D03*
X90010739Y-46017592D03*
X89902378Y-44185802D03*
D14*
X90693933Y-45082592D02*
X91268933Y-44507592D01*
X90478933Y-45082592D02*
X90693933Y-45082592D01*
X90443933Y-45047592D02*
X90478933Y-45082592D01*
X88408933Y-45047592D02*
X90443933Y-45047592D01*
X91268933Y-44507592D02*
X91268933Y-44222592D01*
X91268933Y-44222592D02*
X91268933Y-45538933D01*
X91268933Y-45538933D02*
X91270000Y-45540000D01*
X93168933Y-43042592D02*
X93488933Y-42722592D01*
X93168933Y-44222592D02*
X93168933Y-43042592D01*
X93488933Y-42722592D02*
X90948933Y-42722592D01*
X93351525Y-44040000D02*
X93168933Y-44222592D01*
X93361525Y-44030000D02*
X93168933Y-44222592D01*
X93168933Y-44222592D02*
X93168933Y-44828933D01*
X93168933Y-44828933D02*
X93750000Y-45410000D01*
X92368933Y-46992592D02*
X92218933Y-46842592D01*
X92218933Y-47127592D02*
X92058090Y-47288435D01*
X92218933Y-46842592D02*
X92218933Y-47127592D01*
X92218933Y-46842592D02*
X90460926Y-46842592D01*
X90460926Y-46842592D02*
X90192193Y-47111325D01*
X90192193Y-47111325D02*
X90154356Y-47111325D01*
X90154356Y-47111325D02*
X90015083Y-47250598D01*
X94458933Y-42722592D02*
X95082468Y-42722592D01*
X95205200Y-42955200D02*
X95510000Y-43260000D01*
X95205200Y-42524800D02*
X95205200Y-42955200D01*
X95150687Y-43260000D02*
X95510000Y-43260000D01*
X94458933Y-42722592D02*
X94613280Y-42722592D01*
X95007408Y-42722592D02*
X95205200Y-42524800D01*
X94458933Y-42722592D02*
X95007408Y-42722592D01*
X95205200Y-42626400D02*
X94861144Y-42970456D01*
X95205200Y-42524800D02*
X95205200Y-42626400D01*
X94613280Y-42722592D02*
X94861144Y-42970456D01*
X94861144Y-42970456D02*
X95150687Y-43260000D01*
X88408933Y-46017592D02*
X90010739Y-46017592D01*
X89902378Y-42799147D02*
X89978933Y-42722592D01*
X89902378Y-44185802D02*
X89902378Y-42799147D01*
D15*
G36*
X89060956Y-43048349D02*
G01*
X89105659Y-43195717D01*
X89142379Y-43264414D01*
X89142379Y-43482090D01*
X89098441Y-43526028D01*
X88985173Y-43695546D01*
X88907152Y-43883904D01*
X88867378Y-44083863D01*
X88867378Y-44169865D01*
X88734690Y-44129615D01*
X88581433Y-44114520D01*
X88236433Y-44114520D01*
X88083176Y-44129615D01*
X87935808Y-44174318D01*
X87799993Y-44246913D01*
X87680950Y-44344609D01*
X87583254Y-44463652D01*
X87510659Y-44599467D01*
X87465956Y-44746835D01*
X87450861Y-44900092D01*
X87450861Y-45195092D01*
X87465956Y-45348349D01*
X87510659Y-45495717D01*
X87530369Y-45532592D01*
X87510659Y-45569467D01*
X87465956Y-45716835D01*
X87450861Y-45870092D01*
X87450861Y-46165092D01*
X87465956Y-46318349D01*
X87510659Y-46465717D01*
X87583254Y-46601532D01*
X87680950Y-46720575D01*
X87799993Y-46818271D01*
X87935808Y-46890866D01*
X88083176Y-46935569D01*
X88236433Y-46950664D01*
X88581433Y-46950664D01*
X88734690Y-46935569D01*
X88882058Y-46890866D01*
X89017873Y-46818271D01*
X89067441Y-46777592D01*
X89307028Y-46777592D01*
X89350965Y-46821529D01*
X89520483Y-46934797D01*
X89708841Y-47012818D01*
X89908800Y-47052592D01*
X90112678Y-47052592D01*
X90312637Y-47012818D01*
X90500995Y-46934797D01*
X90670513Y-46821529D01*
X90814676Y-46677366D01*
X90922321Y-46516263D01*
X90968102Y-46535226D01*
X91168061Y-46575000D01*
X91277091Y-46575000D01*
X91417683Y-46715592D01*
X92091933Y-46715592D01*
X92091933Y-46695592D01*
X92345933Y-46695592D01*
X92345933Y-46715592D01*
X93020183Y-46715592D01*
X93178933Y-46556842D01*
X93181603Y-46274993D01*
X93259744Y-46327205D01*
X93448102Y-46405226D01*
X93648061Y-46445000D01*
X93851939Y-46445000D01*
X94051898Y-46405226D01*
X94240256Y-46327205D01*
X94409774Y-46213937D01*
X94553937Y-46069774D01*
X94667205Y-45900256D01*
X94745226Y-45711898D01*
X94785000Y-45511939D01*
X94785000Y-45308061D01*
X94745226Y-45108102D01*
X94667205Y-44919744D01*
X94553937Y-44750226D01*
X94409774Y-44606063D01*
X94240256Y-44492795D01*
X94132005Y-44447956D01*
X94132005Y-43657630D01*
X94158176Y-43665569D01*
X94311433Y-43680664D01*
X94496550Y-43680664D01*
X94586883Y-43770996D01*
X94610686Y-43800001D01*
X94726411Y-43894974D01*
X94858440Y-43965546D01*
X95001701Y-44009003D01*
X95113354Y-44020000D01*
X95113362Y-44020000D01*
X95150685Y-44023676D01*
X95188008Y-44020000D01*
X95472676Y-44020000D01*
X95509999Y-44023676D01*
X95547322Y-44020000D01*
X95547333Y-44020000D01*
X95658986Y-44009003D01*
X95802247Y-43965546D01*
X95934276Y-43894974D01*
X96050001Y-43800001D01*
X96144974Y-43684276D01*
X96215546Y-43552247D01*
X96259003Y-43408986D01*
X96273677Y-43260000D01*
X96259003Y-43111014D01*
X96247479Y-43073025D01*
X96283941Y-42985000D01*
X97805001Y-42985000D01*
X97805000Y-58693000D01*
X87105000Y-58693000D01*
X87105000Y-47452592D01*
X91255861Y-47452592D01*
X91268121Y-47577074D01*
X91304431Y-47696772D01*
X91363396Y-47807086D01*
X91442748Y-47903777D01*
X91539439Y-47983129D01*
X91649753Y-48042094D01*
X91769451Y-48078404D01*
X91893933Y-48090664D01*
X91933183Y-48087592D01*
X92091933Y-47928842D01*
X92091933Y-46969592D01*
X92345933Y-46969592D01*
X92345933Y-47928842D01*
X92504683Y-48087592D01*
X92543933Y-48090664D01*
X92668415Y-48078404D01*
X92788113Y-48042094D01*
X92898427Y-47983129D01*
X92995118Y-47903777D01*
X93074470Y-47807086D01*
X93133435Y-47696772D01*
X93169745Y-47577074D01*
X93182005Y-47452592D01*
X93178933Y-47128342D01*
X93020183Y-46969592D01*
X92345933Y-46969592D01*
X92091933Y-46969592D01*
X91417683Y-46969592D01*
X91258933Y-47128342D01*
X91255861Y-47452592D01*
X87105000Y-47452592D01*
X87105000Y-42985000D01*
X89054716Y-42985000D01*
X89060956Y-43048349D01*
X89060956Y-43048349D01*
G37*
X89060956Y-43048349D02*
X89105659Y-43195717D01*
X89142379Y-43264414D01*
X89142379Y-43482090D01*
X89098441Y-43526028D01*
X88985173Y-43695546D01*
X88907152Y-43883904D01*
X88867378Y-44083863D01*
X88867378Y-44169865D01*
X88734690Y-44129615D01*
X88581433Y-44114520D01*
X88236433Y-44114520D01*
X88083176Y-44129615D01*
X87935808Y-44174318D01*
X87799993Y-44246913D01*
X87680950Y-44344609D01*
X87583254Y-44463652D01*
X87510659Y-44599467D01*
X87465956Y-44746835D01*
X87450861Y-44900092D01*
X87450861Y-45195092D01*
X87465956Y-45348349D01*
X87510659Y-45495717D01*
X87530369Y-45532592D01*
X87510659Y-45569467D01*
X87465956Y-45716835D01*
X87450861Y-45870092D01*
X87450861Y-46165092D01*
X87465956Y-46318349D01*
X87510659Y-46465717D01*
X87583254Y-46601532D01*
X87680950Y-46720575D01*
X87799993Y-46818271D01*
X87935808Y-46890866D01*
X88083176Y-46935569D01*
X88236433Y-46950664D01*
X88581433Y-46950664D01*
X88734690Y-46935569D01*
X88882058Y-46890866D01*
X89017873Y-46818271D01*
X89067441Y-46777592D01*
X89307028Y-46777592D01*
X89350965Y-46821529D01*
X89520483Y-46934797D01*
X89708841Y-47012818D01*
X89908800Y-47052592D01*
X90112678Y-47052592D01*
X90312637Y-47012818D01*
X90500995Y-46934797D01*
X90670513Y-46821529D01*
X90814676Y-46677366D01*
X90922321Y-46516263D01*
X90968102Y-46535226D01*
X91168061Y-46575000D01*
X91277091Y-46575000D01*
X91417683Y-46715592D01*
X92091933Y-46715592D01*
X92091933Y-46695592D01*
X92345933Y-46695592D01*
X92345933Y-46715592D01*
X93020183Y-46715592D01*
X93178933Y-46556842D01*
X93181603Y-46274993D01*
X93259744Y-46327205D01*
X93448102Y-46405226D01*
X93648061Y-46445000D01*
X93851939Y-46445000D01*
X94051898Y-46405226D01*
X94240256Y-46327205D01*
X94409774Y-46213937D01*
X94553937Y-46069774D01*
X94667205Y-45900256D01*
X94745226Y-45711898D01*
X94785000Y-45511939D01*
X94785000Y-45308061D01*
X94745226Y-45108102D01*
X94667205Y-44919744D01*
X94553937Y-44750226D01*
X94409774Y-44606063D01*
X94240256Y-44492795D01*
X94132005Y-44447956D01*
X94132005Y-43657630D01*
X94158176Y-43665569D01*
X94311433Y-43680664D01*
X94496550Y-43680664D01*
X94586883Y-43770996D01*
X94610686Y-43800001D01*
X94726411Y-43894974D01*
X94858440Y-43965546D01*
X95001701Y-44009003D01*
X95113354Y-44020000D01*
X95113362Y-44020000D01*
X95150685Y-44023676D01*
X95188008Y-44020000D01*
X95472676Y-44020000D01*
X95509999Y-44023676D01*
X95547322Y-44020000D01*
X95547333Y-44020000D01*
X95658986Y-44009003D01*
X95802247Y-43965546D01*
X95934276Y-43894974D01*
X96050001Y-43800001D01*
X96144974Y-43684276D01*
X96215546Y-43552247D01*
X96259003Y-43408986D01*
X96273677Y-43260000D01*
X96259003Y-43111014D01*
X96247479Y-43073025D01*
X96283941Y-42985000D01*
X97805001Y-42985000D01*
X97805000Y-58693000D01*
X87105000Y-58693000D01*
X87105000Y-47452592D01*
X91255861Y-47452592D01*
X91268121Y-47577074D01*
X91304431Y-47696772D01*
X91363396Y-47807086D01*
X91442748Y-47903777D01*
X91539439Y-47983129D01*
X91649753Y-48042094D01*
X91769451Y-48078404D01*
X91893933Y-48090664D01*
X91933183Y-48087592D01*
X92091933Y-47928842D01*
X92091933Y-46969592D01*
X92345933Y-46969592D01*
X92345933Y-47928842D01*
X92504683Y-48087592D01*
X92543933Y-48090664D01*
X92668415Y-48078404D01*
X92788113Y-48042094D01*
X92898427Y-47983129D01*
X92995118Y-47903777D01*
X93074470Y-47807086D01*
X93133435Y-47696772D01*
X93169745Y-47577074D01*
X93182005Y-47452592D01*
X93178933Y-47128342D01*
X93020183Y-46969592D01*
X92345933Y-46969592D01*
X92091933Y-46969592D01*
X91417683Y-46969592D01*
X91258933Y-47128342D01*
X91255861Y-47452592D01*
X87105000Y-47452592D01*
X87105000Y-42985000D01*
X89054716Y-42985000D01*
X89060956Y-43048349D01*
M02*
